<svg xmlns="http://www.w3.org/2000/svg" viewBox="0 0 64 64" width="64" height="64">
  <defs>
    <linearGradient id="g" x1="0" y1="0" x2="1" y2="1">
      <stop offset="0" stop-color="#0058bc"/>
      <stop offset="1" stop-color="#00daf1"/>
    </linearGradient>
  </defs>
  <rect width="64" height="64" rx="16" fill="url(#g)"/>
  <path d="M32 47c-1 0-2-.4-2.7-1.1l-9.3-9.1C16.9 33.7 16 30.9 16 27.8 16 22.9 19.8 19 24.6 19c2.8 0 5.4 1.3 7.4 3.6 2-2.3 4.6-3.6 7.4-3.6C44.2 19 48 22.9 48 27.8c0 3.1-.9 5.9-4 9L34.7 45.9C34 46.6 33 47 32 47z" fill="#ffffff"/>
</svg>
